<svg width="53" height="20" viewBox="0 0 53 20" fill="none" xmlns="http://www.w3.org/2000/svg">
<g clip-path="url(#clip0_1013_4764)">
<path d="M11.7029 6.36386C11.7029 7.54056 10.6894 7.88775 9.88279 7.88775H7.02647L7.53278 4.99975H10.1359C11.0347 4.99975 11.7029 5.21379 11.7029 6.36386ZM6.40438 11.4435H9.19104C10.2508 11.4435 11.1495 11.6585 11.1495 13.0749C11.1495 14.6264 9.90536 15.0002 9.00755 15.0002H5.75973L6.40438 11.4435ZM16.7709 4.65256C16.7709 1.8987 15.4345 0.454702 11.8648 0.454702H3.40972L0 19.5463H9.44517C13.0394 19.5463 16.2175 17.7275 16.2175 13.1282C16.2175 11.3636 15.25 9.67895 13.7301 9.30513V9.25186H13.7537C15.7338 8.63639 16.7709 7.05923 16.7709 4.65256ZM34.5172 5.34793L35.4071 0.454702H19.639L18.749 5.34793H23.817L21.2384 19.5463H26.8696L29.4482 5.34793H34.5162H34.5172ZM52.6667 7.56719C52.6598 1.84445 49.0558 0 44.9867 0C38.7658 0 34.994 5.13291 34.89 11.3104C34.8056 16.4176 37.3048 20 42.6043 20C50.2058 20 51.7355 14.2516 52.1005 12.2997H46.5714C46.1858 13.9843 45.1663 15.2419 43.4001 15.2419C40.8156 15.2419 40.4977 12.781 40.5251 11.2038C40.5693 8.50323 41.7585 4.75909 44.8798 4.75909C46.6214 4.75909 47.423 5.77502 47.3426 7.56719H52.6667Z" fill="#003869"/>
</g>
<defs>
<clipPath id="clip0_1013_4764">
<rect width="52.6667" height="20" fill="white"/>
</clipPath>
</defs>
</svg>
